<?xml version="1.0" encoding="utf-8"?>
<!-- Generator: Adobe Illustrator 23.1.1, SVG Export Plug-In . SVG Version: 6.00 Build 0)  -->
<svg version="1.1" id="Layer_1" xmlns="http://www.w3.org/2000/svg" xmlns:xlink="http://www.w3.org/1999/xlink" x="0px" y="0px"
	 viewBox="0 0 390.2 98.8" style="enable-background:new 0 0 390.2 98.8;" xml:space="preserve">
<style type="text/css">
	.st0{fill:#010101;}
</style>
<path class="st0" d="M77.4,95.1c3-2.6,4.5-5.7,4.4-9.3c0-0.1,0-0.2,0-0.3c3.8-0.5,7.3-1.9,10.4-4.2l0,0c4.9-3.6,7.2-7.9,7.1-13
	c0-1.2-0.1-2.4-0.4-3.5c0.4-0.3,0.9-0.6,1.4-0.9c0.1-0.1,0.1-0.1,0.2-0.1c3.2-2.2,4.8-5.8,4.8-10.8c0.1-2.8-0.9-5.5-2.9-8.4
	c1-0.6,1.9-1.2,2.8-1.9c0.5-0.3,1-0.8,1.6-1.3c0.2-0.2,0.4-0.4,0.6-0.6c0-0.1,0.1-0.1,0.1-0.2c4.8-4.4,7.1-8.7,7-13
	c0.2-4.4-2-8.7-6.9-12.9l0,0c-7.9-7.1-17.9-8.5-30.1-4.2c-0.3-0.3-0.5-0.6-0.8-0.9v0c-6.2-6.5-13-9.6-20.4-9.6
	c-5.2-0.1-11.2,2.5-17.9,7.9l0,0c-4,3.1-7.3,7.8-9.9,14.2c-1.6-0.9-3.2-1.3-4.9-1.2C17.7,20.8,13,24.3,9.4,31.6l0,0
	C6.9,36.5,5.3,42,4.6,48v0c-0.7,6.1-0.1,12.2,2,18.4l0,0c2.2,6.7,7.3,10.5,15.6,11.2c0.8,1.6,1.9,3.4,3.3,5.2l0,0
	c4.6,6.6,12.4,9,23.3,7.2c0.8,0.9,1.7,1.8,2.8,2.8v0c4.6,4.1,9.3,6.1,14.2,6h0.1C70.9,98.7,74.7,97.4,77.4,95.1
	C77.4,95.1,77.4,95.1,77.4,95.1z M66.8,64.2c0.1,0,0.1,0.1,0.2,0.1c0.4,0.2,0.8,0.5,1.2,0.7c2.9,1.7,5.9,2.9,9.1,3.7
	c2.3,0.5,4.7,0.8,7.1,0.8c2.5,0,4.9-0.3,7.1-1c-0.2,2.4-1.5,4.6-3.9,6.4l0,0c-2.7,1.9-5.8,2.9-9.1,2.9c-4,0-7.8-1.1-11.2-3.2l0,0
	c-3.5-2.2-5.3-5-5.4-8.5c0-1.4,0.4-2.4,1.3-3.1h0.1c0.4-0.2,0.8-0.4,1.3-0.6C65.2,63.1,66,63.7,66.8,64.2z M77.9,47.3
	c0.2,0,0.3,0.1,0.5,0.1c0.4,0.1,0.8,0.2,1.3,0.2l-0.2-0.1c3.1,0.7,6.3,1,9.5,0.8h0c1.9-0.1,3.8-0.4,5.7-0.8c1.7,1.9,2.7,3.7,2.8,5.4
	c0,1.9-0.5,3.3-1.5,4.3l-0.1,0.1c0,0-0.1,0-0.1,0.1c-0.5,0.3-1,0.7-1.5,1h0c-0.5,0.4-1,0.7-1.5,1c0,0-0.1,0.1-0.1,0.1
	c-0.2,0.1-0.4,0.2-0.7,0.3c-0.2,0-0.3,0.1-0.5,0.2c-2.2,1.1-4.6,1.6-7.2,1.6c-1.9,0-3.7-0.2-5.4-0.6c-2.3-0.5-4.6-1.4-6.7-2.7
	c-0.4-0.2-0.8-0.5-1.2-0.7c-1-0.7-1.9-1.5-2.6-2.3v0c-1.4-1.7-2.2-3.7-2.2-5.8c0-1.5,0.5-2.6,1.5-3.3v0c1.3-0.7,3-1.1,5-1.1
	C74.3,46,76,46.7,77.9,47.3z M102.6,20.6L102.6,20.6c2.7,2.3,4,4.6,4.2,6.8c-0.2,2.4-1.7,4.8-4.6,7.4c-0.1,0.1-0.3,0.3-0.4,0.4
	c-0.1,0.1-0.2,0.2-0.3,0.3c-0.3,0.2-0.5,0.4-0.7,0.5c0,0-0.1,0.1-0.1,0.1c-1.5,1.2-3.2,2.1-5,2.8c-0.6,0.2-1.2,0.3-1.8,0.5
	c-1.8,0.5-3.6,0.8-5.4,0.9h0c-2.4,0.2-4.8,0-7.2-0.6c-0.1,0-0.1,0-0.2-0.1c-0.3-0.1-0.7-0.1-1-0.2c-0.3-0.1-0.7-0.2-1-0.3
	c1.3-0.7,2.5-1.7,3.4-3c0,0,0-0.1,0.1-0.1c1.3-1.7,2.1-3.7,2.5-6.1c0.8,0.3,1.9,0.8,3.5,1.5c1,0.4,2,0.5,3,0.1
	c1-0.4,1.7-1.1,2.2-2.1c0.5-1,0.5-2,0.1-3c-0.4-1-1.1-1.7-2.1-2.2c-3.5-1.6-5.6-2.4-6.4-2.5c-0.1,0-0.2,0-0.4,0c-0.1,0-0.3,0-0.4,0
	c0-0.1,0-0.1-0.1-0.2c0,0,0-0.1,0-0.1c-0.4-1.4-1-2.8-1.8-4.1C90.6,15,97.2,16.2,102.6,20.6z M31.8,78.1L31.8,78.1
	c-3-4.1-4.1-7.3-3.1-9.8c0.5-1,0.6-2,0.3-3c-0.3-1-1-1.8-1.9-2.4c-1-0.5-2-0.6-3-0.3c-1,0.3-1.8,1-2.4,1.9c-0.9,1.4-1.4,3-1.6,4.7
	c-3-0.9-5-2.7-6-5.3l0,0c-1.7-5-2.2-10-1.7-14.9v0c0.6-5,2-9.7,4.1-13.9l0,0c1.9-3.9,4.3-5.9,7.1-6.1c0.7,0.1,1.4,0.4,2.2,1
	c-0.6,2-1.1,4.1-1.6,6.4c-0.2,1.1,0,2.1,0.5,3c0.6,0.9,1.4,1.5,2.5,1.8c1.1,0.2,2.1,0,3-0.5c0.9-0.6,1.5-1.4,1.8-2.5
	c2.5-11.6,6.4-19.6,11.5-23.9l0,0c4.9-4,9.2-6,12.9-6.2c5.3,0.1,10.2,2.5,14.7,7.1c0.8,0.8,1.5,1.6,2.1,2.4c0,0,0,0.1,0.1,0.1
	c0.1,0.1,0.2,0.2,0.3,0.3c1.6,2,2.7,4,3.3,5.9l0-0.1c0.2,0.7,0.3,1.3,0.4,2c0,0.1,0,0.1,0,0.1c0,0.4,0.1,0.7,0.1,1.1
	c0,1.8-0.4,3.4-1.2,4.6l0.1-0.1c-0.7,0.9-1.7,1.3-2.9,1.3c-0.6,0-1.1-0.1-1.7-0.2l-0.1,0h0c-1.2-0.4-2.3-1.1-3.3-2.2h0
	c-2.6-2.5-4.4-4.3-5.6-5.4c-0.2-0.4-0.4-0.7-0.7-1.1c-0.7-0.8-1.5-1.2-2.5-1.3c-1-0.1-1.9,0.1-2.8,0.7c-0.8,0.6-1.3,1.4-1.6,2.4
	c-0.4,1.4-0.2,3.3,0.7,5.8l0,0.1c0.4,1.2,0.7,2,0.7,2.5c-0.1,2.5-1.1,5-3,7.7l0,0c-1.8,2.4-3.8,3.8-5.7,4.2c-1.1,0.1-2,0.7-2.6,1.5
	c-0.7,0.9-0.9,1.8-0.8,2.9c0.1,1.1,0.7,2,1.5,2.6c0.9,0.7,1.8,0.9,2.9,0.8c3.5-0.3,6.8-2.3,9.9-6c-0.1,0.5-0.1,1.1-0.1,1.6
	c0,2.3,0.4,4.4,1.2,6.4c-0.3,0.2-0.6,0.3-0.8,0.5c-3.3,2-4.9,5.3-4.9,9.7c0,0.4,0,0.9,0,1.3c-2.5,0.3-4.7,1.6-6.4,3.9l0,0
	c-1.9,2.3-2.8,5.1-2.8,8.6c0,0.9,0.1,1.7,0.3,2.6C39,82.9,34.6,81.5,31.8,78.1z M65.7,90.8c-3-0.1-6-1.4-8.8-3.9v0
	c-1.3-1.2-2.3-2.3-3-3.4l-0.1-0.1c0-0.1-0.1-0.1-0.1-0.2c-0.7-1.1-1.1-2.2-1.1-3.3c0-1.4,0.4-2.6,1.1-3.6l0,0c0.5-0.6,1.1-0.9,1.8-1
	c0.2,0,0.3,0,0.4,0c0.1,0,0.1,0.1,0.2,0.1c0.2,0.1,0.5,0.2,0.7,0.3c1.5,2.1,3.6,4,6.3,5.7l0,0c3.3,2,6.8,3.3,10.5,3.9
	c0.1,0.1,0.2,0.3,0.3,0.4l0,0c0,1.3-0.6,2.4-1.6,3.3C70.8,90.2,68.6,90.7,65.7,90.8L65.7,90.8L65.7,90.8z"/>
<path class="st0" d="M225.2,88.6c0.3-1.7,0.3-3.2-0.1-4.7c2.2-0.1,4.4-0.2,6.6-0.3h0c3.2-0.3,5.9-1.6,8.1-4c2.2-2.5,3.2-5.3,3-8.6
	c-0.2-2.6-1.1-4.8-2.7-6.8c1.2-0.2,2.1-0.3,2.5-0.5l0,0c3.4-1.3,6-3.5,7.9-6.6l0,0c2-3.4,2.1-7.1,0.4-11v0c-1.6-4-5.1-6.5-10.4-7.3
	h0c-0.8-0.1-1.6-0.3-2.6-0.3c0.2-0.4,0.4-0.7,0.6-1.1l0,0c1.3-2.9,1.5-5.9,0.5-9c0,0,0,0,0-0.1c-1.1-3-3.1-5.3-5.8-6.7h0
	c-2.4-1.4-5.8-1.9-10.2-1.5v0c-3.2,0.3-16.4,3.1-39.5,8.7c0.1-0.1,0.1-0.2,0.2-0.3v0c1.7-2.8,3-5.9,3.8-9.4l0,0
	c1.1-3.8,0.7-7.8-1.1-12.1c-2.1-5.1-6-7.3-11.7-6.6h0c-5.5,0.5-9.1,4.2-10.7,11c-1,4.3-2,7.2-3,8.6l0,0c-1.1,1.3-2.9,2.6-5.5,4.1
	c0,0,0,0,0,0c-3.6,2-6.5,5-8.5,9v0c-0.6,1.2-1.2,2.4-1.6,3.7c-2-1.3-3.8-1.9-5.3-1.8c-5-0.2-9,2.8-12,8.9l0,0
	c-2.1,4.2-3.5,8.8-4.1,13.8v0c-0.6,5.1,0,10.3,1.7,15.4l0,0c1.9,6.1,6.8,9.2,14.7,9.5c0.4,0,0.8,0,1.2-0.2c6.6,11.7,20,15,40,10
	c10.1,3.3,20.4,5.4,31.1,6.4h0c3,0.3,5.8-0.6,8.3-2.5C223.2,94.2,224.7,91.6,225.2,88.6z M182.5,85.6c-0.6-0.2-1.3-0.2-1.9,0
	c-19.6,5.1-31.6,0.9-35.9-12.8c-0.3-0.9-0.8-1.5-1.6-2c-0.8-0.4-1.7-0.5-2.5-0.3c-0.9,0.3-1.5,0.8-2,1.6c-0.4,0.8-0.5,1.7-0.3,2.5
	c0.1,0.3,0.2,0.6,0.3,0.9c-3.4-0.5-5.7-2.1-6.8-4.9l0,0c-1.4-4.2-1.9-8.3-1.4-12.5c0.5-4.3,1.7-8.2,3.4-11.7l0,0
	c1.6-3.2,3.6-5,6-5.1c0.9,0.2,2,0.8,3.4,2c-0.1,0.5-0.2,1-0.2,1.5c-0.1,0.9,0.1,1.7,0.7,2.5c0.6,0.7,1.3,1.1,2.2,1.3
	c0.9,0.1,1.7-0.1,2.5-0.7c0.7-0.6,1.1-1.3,1.3-2.2c0.4-3.5,1.4-6.8,3-9.9v0c1.4-2.8,3.3-4.8,5.8-6.2l0,0c3.5-2,5.9-3.8,7.4-5.7l0,0
	c1.6-1.8,3-5.5,4.4-11.3c0.8-3.5,2.5-5.4,5.1-5.9h0c2.3-0.3,3.9,0.5,4.8,2.5c1.2,2.8,1.4,5.4,0.8,7.9l0,0c-0.7,2.8-1.8,5.3-3.1,7.7
	v0c-1.7,2.9-2.7,5.4-3.1,7.6c0,0.1,0,0.1,0,0.2c0,0.1,0,0.3,0,0.4c-0.1,1.1,0,3.1,0.1,6v0c0.1,2.3-0.6,5.2-2.1,8.6h0
	c-1.5,3.4-4.5,6.1-8.8,8.2c-0.8,0.4-1.4,1-1.7,1.9c-0.3,0.9-0.3,1.7,0.1,2.5c0.4,0.8,1,1.4,1.9,1.7c0.9,0.3,1.7,0.3,2.5-0.1
	c6-2.9,10-6.8,12-11.6h0c2-4.6,2.9-8.5,2.7-11.6v0c0-1.1-0.1-2-0.1-2.8c24.9-5.9,38.9-9.1,42.2-9.4v0c2.8-0.2,4.9,0,6.5,0.7h0
	c1.2,0.7,2.1,1.7,2.6,3c0,0,0,0,0,0.1c0.4,1.4,0.4,2.7-0.2,4c0,0,0,0,0,0c-0.6,1.2-1.5,2-2.7,2.5l0,0c-2,0.7-4,1.4-6,2
	c-0.1,0-0.1,0-0.2,0c-0.3,0.1-1.2,0.4-2.6,0.8c-0.1,0-0.1,0-0.2,0c-7,2-16.3,3.9-27.9,5.7c-0.9,0.1-1.6,0.6-2.2,1.3
	c-0.5,0.7-0.7,1.6-0.6,2.5c0.1,0.9,0.6,1.6,1.3,2.2c0.7,0.5,1.6,0.7,2.5,0.6c12-1.8,21.5-3.7,28.7-5.8c7.6-1.2,13.2-1.5,16.8-0.9h0
	c2.6,0.4,4.4,1.6,5.3,3.4v0c0.8,1.8,0.8,3.5-0.1,5.1l0,0c-1,1.7-2.5,3-4.4,3.7c-2.4,0.8-17.6,1.8-45.6,3.1c0,0-0.1,0-0.1,0
	c-0.9,0-1.7,0.4-2.3,1.1c-0.6,0.7-0.9,1.5-0.9,2.4c0,0.9,0.4,1.7,1,2.3c0.7,0.6,1.4,0.9,2.3,0.9c0,0,0.1,0,0.1,0
	c22.5-0.4,34.3-0.6,35.5-0.6h0c1.4-0.1,2.7,0.3,3.8,1.2l0,0c1.1,1,1.7,2.2,1.8,3.6c0.1,1.4-0.3,2.7-1.3,3.7c-1,1.1-2.2,1.7-3.6,1.8
	c-2.3,0.2-4.5,0.3-6.8,0.3c-1.6,0-3.3,0-5,0c-0.2,0-0.3,0-0.5,0c-8.2,0-17.6-0.6-28.2-1.7c-0.9-0.1-1.7,0.1-2.4,0.7
	c-0.7,0.6-1.1,1.3-1.2,2.2c-0.1,0.9,0.1,1.7,0.7,2.4c0.6,0.7,1.3,1.1,2.2,1.2c10.4,1.1,19.7,1.7,27.8,1.8c0,0,0,0,0,0.1
	c0.7,1,0.9,2.2,0.7,3.5v0c-0.2,1.4-0.9,2.5-2,3.4c-1.1,0.8-2.2,1.2-3.5,1.1C202.6,91.1,192.4,88.9,182.5,85.6z"/>
<path class="st0" d="M263,63.8c2,6.2,7,9.5,15,9.7c0.3,0,0.5,0,0.7,0c0.7,1,1.5,2.1,2.5,3c3.5,3.7,7.7,5.5,12.4,5.4
	c0.5,0,1.3-0.1,2.3-0.2c0.5-0.1,0.9-0.1,1-0.1c0.1,0,0.2,0,0.3,0c0.9,1.6,2,3.2,3.6,4.8l0,0c3.7,3.9,7.7,5.8,12.1,5.7
	c3.8,0,7.1-1.1,10-3.2c3.3-2.4,4.9-5.2,4.8-8.4c0-0.1,0-0.1,0-0.2c4.2-0.1,8-1.3,11.4-3.3l0,0c4.6-2.9,6.8-6.4,6.7-10.5
	c0-1.4-0.2-2.8-0.7-4.1c4.1,0.8,8.2,1.4,12.5,2c8.8,1.2,14.7,1.5,17.9,1c0,0,0,0,0,0c4.1-0.6,7.2-2.9,9.4-6.8l0,0
	c2.3-3.8,2.3-8.2-0.1-13c-1.9-4.8-8.2-7.5-18.9-8.3c-0.1,0-0.2,0-0.4,0c7.4-2.3,11.9-5.2,13.6-8.6l0,0c2.6-4.8,2.9-8.7,1.1-11.7
	c-1.5-2.8-3.8-4.8-6.9-5.9h0c-2.6-1-5.6-1.4-8.9-1.3h0c-3,0-9.1,1.6-18.2,4.7c-7.1,2.4-13,4.8-17.7,7.1c-1.2-2.1-2.8-4.2-4.9-6.4
	c-5.3-5.6-11.2-8.3-17.6-8.2c-4.5-0.1-9.7,2.2-15.4,6.8c-3.4,2.6-6.3,6.7-8.6,12.2c-1.4-0.7-2.8-1.1-4.2-1
	c-5.1-0.2-9.2,2.8-12.3,9.1c-2.1,4.3-3.5,9-4.1,14.2C260.5,53.3,261.1,58.5,263,63.8z M313,77L313,77c2.3,1.2,4.8,2.1,7.3,2.6
	c0.1,0.3,0.3,0.6,0.5,0.8c-0.1,1.1-0.8,2.1-2,2.9c-1.7,1.3-3.7,1.9-5.9,1.9c-2.6-0.1-5-1.3-7.2-3.6l0,0c-2.1-2.1-3.1-4.2-3.2-6.2
	c0-1.2,0.3-2.2,0.9-3.1l0,0c0.4-0.5,0.9-0.8,1.5-0.8c0.3,0,0.5,0,0.6,0c0,0,0.1,0,0.1,0h-0.1c0.4,0.2,0.8,0.3,1.2,0.3
	C308.1,73.8,310.2,75.5,313,77z M271.5,36.9c1.6-3.3,3.7-5.1,6.2-5.3c0.6,0.1,1.2,0.4,1.9,0.8c-0.5,1.7-1,3.6-1.4,5.5
	c-0.2,0.9,0,1.8,0.5,2.6c0.5,0.8,1.2,1.3,2.1,1.5c0.9,0.2,1.8,0,2.6-0.5c0.8-0.5,1.3-1.2,1.5-2.1c2.2-10,5.5-16.9,9.9-20.6
	c4.2-3.4,7.9-5.2,11.1-5.3c4.6,0.1,8.8,2.1,12.6,6.1v0c2.4,2.6,4.1,5,4.9,7.4c0,0,0,0,0,0.1c0.3,0.9,0.4,1.8,0.4,2.7
	c0,1.6-0.3,2.9-1,3.9c-0.6,0.8-1.4,1.1-2.5,1.1c-1.6,0-3.1-0.7-4.4-2c-2.2-2.2-3.8-3.7-4.8-4.7c-0.1-0.3-0.3-0.7-0.6-1
	c-0.6-0.7-1.3-1-2.2-1.1c-0.9-0.1-1.7,0.1-2.4,0.6c-0.7,0.5-1.2,1.2-1.3,2.1c-0.4,1.2-0.2,2.9,0.5,5c0,0,0,0,0,0.1
	c0.4,1,0.6,1.7,0.6,2.2c-0.1,2.1-1,4.3-2.7,6.6c-1.6,2.1-3.2,3.3-4.9,3.7c-0.9,0.1-1.7,0.6-2.2,1.3c-0.6,0.8-0.8,1.6-0.7,2.5
	c0.1,0.9,0.6,1.7,1.3,2.2c0.8,0.6,1.6,0.8,2.5,0.7c3.4-0.4,6.5-2.5,9.4-6.3c2-2.7,3.3-5.3,3.8-7.9c2.4,1.9,5,2.9,7.9,2.8
	c3.4,0,6.1-1.3,8-3.8l0,0c1.6-2,2.4-4.7,2.4-7.9c0-0.6,0-1.3-0.1-1.9c4.6-2.3,10.5-4.7,17.7-7.2c8.1-2.8,13.5-4.3,16.2-4.4h0
	c2.4-0.1,4.5,0.2,6.4,0.9h0c1.4,0.5,2.5,1.4,3.2,2.7c0.4,1.3,0.1,3-1.1,5.2l0,0c-1.8,2.6-6.7,4.9-14.8,6.8l0,0
	c-9.6,2.2-18.6,4.6-27,7.2c-0.8,0.3-1.5,0.8-1.9,1.6c-0.5,0.8-0.6,1.6-0.4,2.4c0.2,0.9,0.7,1.5,1.4,2.1c0.7,0.5,1.5,0.7,2.4,0.6
	c13.1-1.8,24-2.5,32.6-1.9c7.2,0.5,11.6,2,13.2,4.5c1.2,2.5,1.3,4.7,0.3,6.7l0,0c-1,1.9-2.5,3-4.5,3.4l0,0c-2.8,0.4-8.1,0-16-1
	c-8.1-1.1-15.9-2.5-23.4-4.3c-0.7-0.2-1.4-0.4-2.2-0.5c-0.1,0-0.1,0-0.2,0c-0.3,0-0.6-0.1-1-0.1c-0.9-0.1-1.8,0.1-2.5,0.7
	c-0.7,0.6-1.1,1.4-1.2,2.3c-0.1,0.9,0.1,1.8,0.7,2.5c0.6,0.7,1.4,1.1,2.3,1.2c0.3,0,0.5,0.1,0.7,0.1c0.1,0,0.1,0,0.2,0
	c0.3,0.1,0.5,0.1,0.8,0.2c0.1,0,0.2,0.1,0.2,0.1c1.2,0.4,2.4,1.1,3.5,2.1l0,0c1.5,1.4,2.3,2.9,2.4,4.6c-0.1,1.8-1.3,3.4-3.4,4.7l0,0
	c-2.6,1.6-5.5,2.4-8.7,2.4c-3.8,0-7.3-0.8-10.6-2.5h0c-3.1-1.6-4.8-3.7-4.9-6.2c0-0.9,0.4-1.6,1.1-2.1l0,0c1.1-0.6,2.6-0.8,4.5-0.8
	c0.6,0.1,2,0.5,4,1.3c0,0,0,0,0.1,0c2,0.8,3.2,1.3,3.6,1.6c0.7,0.6,1.5,0.9,2.5,0.8c0.9-0.1,1.7-0.5,2.3-1.2
	c0.6-0.7,0.9-1.5,0.8-2.5c-0.1-0.9-0.5-1.7-1.2-2.3c-0.6-0.6-2.4-1.5-5.5-2.8c0,0,0,0-0.1,0c-3.3-1.3-5.4-1.8-6.5-1.8
	c-3.2,0-5.7,0.5-7.7,1.6l0,0c-3.1,1.7-4.7,4.3-4.7,8c-2.5,0.1-4.6,1.2-6.4,3.3l0,0c-1.5,1.9-2.3,4.2-2.4,6.9c-0.2,0-0.5,0.1-0.8,0.1
	h0c-0.5,0.1-0.9,0.1-1.2,0.1c-2.9,0-5.4-1.1-7.5-3.4c-2.1-2.1-3.2-4.5-3.3-7.2c0-0.9-0.4-1.7-1.1-2.4c-0.7-0.6-1.5-0.9-2.4-0.9
	c-0.9,0-1.7,0.4-2.4,1.1c-0.6,0.7-0.9,1.5-0.9,2.4c0,0.6,0.1,1.1,0.1,1.7c-3.4-0.5-5.6-2.2-6.7-4.9c-1.5-4.3-1.9-8.5-1.4-12.8
	C268.5,44.5,269.7,40.5,271.5,36.9z"/>
</svg>
